<svg xmlns="http://www.w3.org/2000/svg" viewBox="0 0 340 80">
  <!-- Windows logo -->
  <g transform="translate(20, 10) scale(0.23)" fill="#7d8590">
    <path d="M216,140H136a4.0002,4.0002,0,0,0-4,4v57.45459a4.00022,4.00022,0,0,0,3.28467,3.93555l80,14.54541A3.99966,3.99966,0,0,0,220,216V144A4.0002,4.0002,0,0,0,216,140Zm-4,71.207-72-13.09082V148h72ZM104,140H40a4.0002,4.0002,0,0,0-4,4v40a3.99983,3.99983,0,0,0,3.28467,3.93555l64,11.63672A4.00033,4.00033,0,0,0,108,195.63674V144A4.0002,4.0002,0,0,0,104,140Zm-4,50.84375L44,180.66164V148h56Zm118.563-153.915a4.00023,4.00023,0,0,0-3.27832-.86426l-80,14.54541A4.00024,4.00024,0,0,0,132,54.54543V112a4.0002,4.0002,0,0,0,4,4h80a4.0002,4.0002,0,0,0,4-4V40A4.001,4.001,0,0,0,218.563,36.92873ZM212,108H140V57.88381L212,44.793ZM103.28467,56.42776l-64,11.63671A3.99985,3.99985,0,0,0,36,72v40a4.0002,4.0002,0,0,0,4,4h64a4.0002,4.0002,0,0,0,4-4V60.3633a4.00031,4.00031,0,0,0-4.71533-3.93554ZM100,108H44V75.3384l56-10.18213Z"/>
  </g>

  <!-- Folder with arrow -->
  <g transform="translate(120, 20)">
    <path d="M0 8 L8 8 L12 4 L40 4 L40 44 L0 44 Z" fill="#7d8590"/>
    <path d="M2 12 L38 12 L38 42 L2 42 Z" fill="#9ca3af"/>
    <path d="M48 24 L68 24 L68 18 L84 28 L68 38 L68 32 L48 32 Z" fill="#e6edf3"/>
  </g>

  <!-- Linux Tux -->
  <g transform="translate(248, 8) scale(2)" fill="#7d8590">
    <path d="M16.63 1.004c-0.194 0-0.394 0.010-0.6 0.026-5.281 0.416-3.88 6.007-3.961 7.87-0.050 1.426-0.534 2.729-1.325 3.792l0.013-0.018c-1.407 1.602-2.555 3.474-3.351 5.523l-0.043 0.127c-0.258 0.685-0.408 1.476-0.408 2.302 0 0.285 0.018 0.566 0.052 0.841l-0.003-0.033c-0.056 0.046-0.103 0.102-0.136 0.166l-0.001 0.003c-0.325 0.335-0.562 0.75-0.829 1.048-0.283 0.217-0.615 0.388-0.975 0.494l-0.021 0.005c-0.464 0.139-0.842 0.442-1.075 0.841l-0.005 0.009c-0.104 0.212-0.165 0.461-0.165 0.725 0 0.010 0 0.019 0 0.029l-0-0.001c0.002 0.238 0.026 0.469 0.073 0.693l-0.004-0.023c0.056 0.219 0.088 0.471 0.088 0.73 0 0.17-0.014 0.337-0.041 0.5l0.002-0.018c-0.167 0.313-0.264 0.685-0.264 1.080 0 0.278 0.048 0.544 0.137 0.791l-0.005-0.016c0.273 0.388 0.686 0.662 1.164 0.749l0.011 0.002c1.274 0.107 2.451 0.373 3.561 0.78l-0.094-0.030c0.698 0.415 1.539 0.66 2.436 0.66 0.294 0 0.582-0.026 0.862-0.077l-0.029 0.004c0.667-0.151 1.211-0.586 1.504-1.169l0.006-0.013c0.734-0.004 1.537-0.336 2.824-0.417 0.873-0.072 1.967 0.334 3.22 0.25 0.037 0.159 0.086 0.298 0.148 0.429l-0.006-0.013 0.004 0.004c0.384 0.804 1.19 1.35 2.124 1.35 0.081 0 0.161-0.004 0.24-0.012l-0.010 0.001c1.151-0.17 2.139-0.768 2.813-1.623l0.007-0.009c0.843-0.768 1.827-1.401 2.905-1.853l0.067-0.025c0.432-0.191 0.742-0.585 0.81-1.059l0.001-0.007c-0.059-0.694-0.392-1.299-0.888-1.716l-0.004-0.003v-0.121l-0.004-0.004c-0.214-0.33-0.364-0.722-0.421-1.142l-0.002-0.015c-0.053-0.513-0.278-0.966-0.615-1.307l0 0h-0.004c-0.074-0.067-0.154-0.084-0.235-0.169-0.066-0.047-0.148-0.076-0.237-0.080l-0.001-0c0.195-0.602 0.308-1.294 0.308-2.013 0-0.94-0.193-1.835-0.541-2.647l0.017 0.044c-0.704-1.672-1.619-3.111-2.732-4.369l0.014 0.017c-1.105-1.082-1.828-2.551-1.948-4.187l-0.001-0.021c0.033-2.689 0.295-7.664-4.429-7.671z"/>
  </g>
</svg>
